<svg width="1152" height="32" viewBox="0 0 1152 32" fill="none" xmlns="http://www.w3.org/2000/svg">
<path d="M0 2C12.1043 2 21.0435 11.3333 24 16C26.9565 20.6667 35.8957 30 48 30C60.1043 30 69.0435 20.6667 72 16C74.9565 11.3333 83.8957 2 96 2C108.104 2 117.043 11.3333 120 16C122.957 20.6667 131.896 30 144 30C156.104 30 165.043 20.6667 168 16C170.957 11.3333 179.896 2 192 2C204.104 2 213.043 11.3333 216 16C218.957 20.6667 227.896 30 240 30C252.104 30 261.043 20.6667 264 16C266.957 11.3333 275.896 2 288 2C300.104 2 309.043 11.3333 312 16C314.957 20.6667 323.896 30 336 30C348.104 30 357.043 20.6667 360 16C362.957 11.3333 371.896 2 384 2C396.104 2 405.043 11.3333 408 16C410.957 20.6667 419.896 30 432 30C444.104 30 453.043 20.6667 456 16C458.957 11.3333 467.896 2 480 2C492.104 2 501.043 11.3333 504 16C506.957 20.6667 515.896 30 528 30C540.104 30 549.043 20.6667 552 16C554.957 11.3333 563.896 2 576 2C588.104 2 597.043 11.3333 600 16C602.957 20.6667 611.896 30 624 30C636.104 30 645.043 20.6667 648 16C650.957 11.3333 659.896 2 672 2C684.104 2 693.043 11.3333 696 16C698.957 20.6667 707.896 30 720 30C732.104 30 741.043 20.6667 744 16C746.957 11.3333 755.896 2 768 2C780.104 2 789.043 11.3333 792 16C794.957 20.6667 803.896 30 816 30C828.104 30 837.043 20.6667 840 16C842.957 11.3333 851.896 2 864 2C876.104 2 885.043 11.3333 888 16C890.957 20.6667 899.896 30 912 30C924.104 30 933.043 20.6667 936 16C938.957 11.3333 947.896 2 960 2C972.104 2 981.043 11.3333 984 16C986.957 20.6667 995.896 30 1008 30C1020.1 30 1029.04 20.6667 1032 16C1034.96 11.3333 1043.9 2 1056 2C1068.1 2 1077.04 11.3333 1080 16C1082.96 20.6667 1091.9 30 1104 30C1116.1 30 1125.04 20.6667 1128 16C1130.96 11.3333 1139.9 2 1152 2" stroke="black" stroke-width="3"/>
</svg>
